<mxfile host="Electron" agent="Mozilla/5.0 (Macintosh; Intel Mac OS X 10_15_7) AppleWebKit/537.36 (KHTML, like Gecko) draw.io/28.0.6 Chrome/138.0.7204.100 Electron/37.2.3 Safari/537.36" version="28.0.6">
  <diagram name="Page-1" id="wguxjYUpoYWgu8fvtnf-">
    <mxGraphModel dx="2305" dy="1045" grid="1" gridSize="10" guides="1" tooltips="1" connect="1" arrows="1" fold="1" page="1" pageScale="1" pageWidth="850" pageHeight="1100" math="0" shadow="0">
      <root>
        <mxCell id="0" />
        <mxCell id="1" parent="0" />
        <mxCell id="1rFECFDxZxibHeM7rXUO-85" value="" style="shape=cube;whiteSpace=wrap;html=1;boundedLbl=1;backgroundOutline=1;darkOpacity=0.05;darkOpacity2=0.1;sketch=1;hachureGap=4;jiggle=2;curveFitting=1;fontFamily=Times New Roman;size=20;fontSize=23;fillColor=#f8cecc;strokeColor=#b85450;" parent="1" vertex="1">
          <mxGeometry x="16.75" y="760" width="906.5" height="230" as="geometry" />
        </mxCell>
        <mxCell id="1rFECFDxZxibHeM7rXUO-56" value="" style="shape=cube;whiteSpace=wrap;html=1;boundedLbl=1;backgroundOutline=1;darkOpacity=0.05;darkOpacity2=0.1;sketch=1;hachureGap=4;jiggle=2;curveFitting=1;fontFamily=Times New Roman;size=20;fontSize=23;fillColor=#ffe6cc;strokeColor=#d79b00;" parent="1" vertex="1">
          <mxGeometry x="30" y="470" width="880" height="270" as="geometry" />
        </mxCell>
        <mxCell id="1rFECFDxZxibHeM7rXUO-21" value="" style="shape=cube;whiteSpace=wrap;html=1;boundedLbl=1;backgroundOutline=1;darkOpacity=0.05;darkOpacity2=0.1;sketch=1;hachureGap=4;jiggle=2;curveFitting=1;fontFamily=Times New Roman;fontSize=23;fillColor=#fff2cc;strokeColor=#d6b656;" parent="1" vertex="1">
          <mxGeometry x="40" y="220" width="700" height="140" as="geometry" />
        </mxCell>
        <mxCell id="1rFECFDxZxibHeM7rXUO-3" value="" style="edgeStyle=orthogonalEdgeStyle;rounded=0;sketch=1;hachureGap=4;jiggle=2;curveFitting=1;orthogonalLoop=1;jettySize=auto;html=1;fontFamily=Times New Roman;fontSize=23;entryX=0;entryY=0.5;entryDx=0;entryDy=0;" parent="1" source="1rFECFDxZxibHeM7rXUO-5" target="1rFECFDxZxibHeM7rXUO-13" edge="1">
          <mxGeometry relative="1" as="geometry">
            <mxPoint x="481" y="310" as="targetPoint" />
            <Array as="points" />
          </mxGeometry>
        </mxCell>
        <mxCell id="1rFECFDxZxibHeM7rXUO-1" value="ComputeManager" style="rounded=1;whiteSpace=wrap;html=1;sketch=1;hachureGap=4;jiggle=2;curveFitting=1;fontFamily=Times New Roman;fontSize=23;fillColor=#e3c800;strokeColor=#B09500;fontColor=#000000;" parent="1" vertex="1">
          <mxGeometry x="110" y="275" width="160" height="70" as="geometry" />
        </mxCell>
        <mxCell id="1rFECFDxZxibHeM7rXUO-6" value="" style="html=1;verticalLabelPosition=bottom;align=center;labelBackgroundColor=#ffffff;verticalAlign=top;strokeWidth=2;strokeColor=#0080F0;shadow=0;dashed=0;shape=mxgraph.ios7.icons.locked;sketch=1;hachureGap=4;jiggle=2;curveFitting=1;fontFamily=Times New Roman;fontSize=23;" parent="1" vertex="1">
          <mxGeometry x="505" y="275" width="24" height="30" as="geometry" />
        </mxCell>
        <mxCell id="1rFECFDxZxibHeM7rXUO-13" value="_attach_volume" style="rounded=1;whiteSpace=wrap;html=1;sketch=1;hachureGap=4;jiggle=2;curveFitting=1;fontFamily=Times New Roman;fontSize=23;fillColor=#e3c800;strokeColor=#B09500;fontColor=#000000;" parent="1" vertex="1">
          <mxGeometry x="573.5" y="275" width="145" height="70" as="geometry" />
        </mxCell>
        <mxCell id="1rFECFDxZxibHeM7rXUO-14" value="" style="edgeStyle=orthogonalEdgeStyle;rounded=0;sketch=1;hachureGap=4;jiggle=2;curveFitting=1;orthogonalLoop=1;jettySize=auto;html=1;fontFamily=Times New Roman;fontSize=23;" parent="1" source="1rFECFDxZxibHeM7rXUO-1" target="1rFECFDxZxibHeM7rXUO-5" edge="1">
          <mxGeometry relative="1" as="geometry">
            <mxPoint x="290" y="310" as="sourcePoint" />
            <mxPoint x="425" y="310" as="targetPoint" />
          </mxGeometry>
        </mxCell>
        <mxCell id="1rFECFDxZxibHeM7rXUO-5" value="driver_bdm" style="text;html=1;align=center;verticalAlign=middle;resizable=0;points=[];autosize=1;strokeColor=none;fillColor=none;fontFamily=Times New Roman;fontSize=23;" parent="1" vertex="1">
          <mxGeometry x="345" y="290" width="130" height="40" as="geometry" />
        </mxCell>
        <mxCell id="1rFECFDxZxibHeM7rXUO-24" value="" style="edgeStyle=orthogonalEdgeStyle;rounded=0;sketch=1;hachureGap=4;jiggle=2;curveFitting=1;orthogonalLoop=1;jettySize=auto;html=1;fontFamily=Times New Roman;strokeColor=#82b366;startArrow=classic;startFill=1;endArrow=classic;endFill=1;fontSize=23;fillColor=#d5e8d4;" parent="1" source="1rFECFDxZxibHeM7rXUO-15" target="1rFECFDxZxibHeM7rXUO-23" edge="1">
          <mxGeometry relative="1" as="geometry" />
        </mxCell>
        <mxCell id="1rFECFDxZxibHeM7rXUO-26" value="volume" style="edgeLabel;html=1;align=center;verticalAlign=middle;resizable=0;points=[];sketch=1;hachureGap=4;jiggle=2;curveFitting=1;fontFamily=Times New Roman;fontSize=23;labelBackgroundColor=default;fontColor=#990000;" parent="1rFECFDxZxibHeM7rXUO-24" vertex="1" connectable="0">
          <mxGeometry x="-0.0235" relative="1" as="geometry">
            <mxPoint as="offset" />
          </mxGeometry>
        </mxCell>
        <mxCell id="1rFECFDxZxibHeM7rXUO-84" value="" style="edgeStyle=orthogonalEdgeStyle;rounded=0;sketch=1;hachureGap=4;jiggle=2;curveFitting=1;orthogonalLoop=1;jettySize=auto;html=1;fontFamily=Architects Daughter;fontSource=https%3A%2F%2Ffonts.googleapis.com%2Fcss%3Ffamily%3DArchitects%2BDaughter;fontSize=23;" parent="1" source="1rFECFDxZxibHeM7rXUO-15" target="1rFECFDxZxibHeM7rXUO-27" edge="1">
          <mxGeometry relative="1" as="geometry" />
        </mxCell>
        <mxCell id="1rFECFDxZxibHeM7rXUO-15" value="bdm.attach" style="rounded=1;whiteSpace=wrap;html=1;sketch=1;hachureGap=4;jiggle=2;curveFitting=1;fontFamily=Times New Roman;fontSize=23;fillColor=#f0a30a;fontColor=#000000;strokeColor=#BD7000;" parent="1" vertex="1">
          <mxGeometry x="100" y="490" width="120" height="60" as="geometry" />
        </mxCell>
        <mxCell id="1rFECFDxZxibHeM7rXUO-16" value="" style="endArrow=classic;html=1;rounded=0;sketch=1;hachureGap=4;jiggle=2;curveFitting=1;fontFamily=Times New Roman;exitX=0;exitY=0.886;exitDx=0;exitDy=0;exitPerimeter=0;fontSize=23;fillColor=#ffe6cc;strokeColor=#d79b00;strokeWidth=3;" parent="1" source="1rFECFDxZxibHeM7rXUO-13" edge="1">
          <mxGeometry width="50" height="50" relative="1" as="geometry">
            <mxPoint x="470" y="440" as="sourcePoint" />
            <mxPoint x="330" y="450" as="targetPoint" />
          </mxGeometry>
        </mxCell>
        <mxCell id="1rFECFDxZxibHeM7rXUO-17" value="&lt;span style=&quot;caret-color: rgb(0, 122, 255); color: rgb(51, 51, 51); orphans: 4; text-align: left; white-space: pre-wrap; background-color: rgb(243, 244, 244);&quot;&gt;START&lt;/span&gt;" style="edgeLabel;html=1;align=center;verticalAlign=middle;resizable=0;points=[];sketch=1;hachureGap=4;jiggle=2;curveFitting=1;fontFamily=Times New Roman;fontSize=23;" parent="1rFECFDxZxibHeM7rXUO-16" vertex="1" connectable="0">
          <mxGeometry x="-0.1137" y="2" relative="1" as="geometry">
            <mxPoint as="offset" />
          </mxGeometry>
        </mxCell>
        <mxCell id="1rFECFDxZxibHeM7rXUO-18" value="" style="endArrow=none;html=1;rounded=0;sketch=1;hachureGap=4;jiggle=2;curveFitting=1;fontFamily=Times New Roman;exitX=0.906;exitY=0.995;exitDx=0;exitDy=0;startArrow=classic;startFill=1;endFill=0;fontSize=23;exitPerimeter=0;fillColor=#ffe6cc;strokeColor=#d79b00;strokeWidth=3;" parent="1" source="1rFECFDxZxibHeM7rXUO-21" edge="1">
          <mxGeometry width="50" height="50" relative="1" as="geometry">
            <mxPoint x="646" y="370" as="sourcePoint" />
            <mxPoint x="450" y="460" as="targetPoint" />
          </mxGeometry>
        </mxCell>
        <mxCell id="1rFECFDxZxibHeM7rXUO-19" value="&lt;span style=&quot;caret-color: rgb(0, 122, 255); color: rgb(51, 51, 51); orphans: 4; text-align: left; white-space: pre-wrap; background-color: rgb(243, 244, 244);&quot;&gt;END&lt;/span&gt;" style="edgeLabel;html=1;align=center;verticalAlign=middle;resizable=0;points=[];sketch=1;hachureGap=4;jiggle=2;curveFitting=1;fontFamily=Times New Roman;fontSize=23;" parent="1rFECFDxZxibHeM7rXUO-18" vertex="1" connectable="0">
          <mxGeometry x="-0.1137" y="2" relative="1" as="geometry">
            <mxPoint x="9" y="-1" as="offset" />
          </mxGeometry>
        </mxCell>
        <mxCell id="1rFECFDxZxibHeM7rXUO-22" value="compute" style="rounded=1;whiteSpace=wrap;html=1;sketch=1;hachureGap=4;jiggle=2;curveFitting=1;fontFamily=Times New Roman;fontSize=23;fillColor=#fff2cc;strokeColor=#d6b656;" parent="1" vertex="1">
          <mxGeometry x="-120" y="280" width="120" height="60" as="geometry" />
        </mxCell>
        <mxCell id="1rFECFDxZxibHeM7rXUO-23" value="cinder-api" style="rounded=1;whiteSpace=wrap;html=1;sketch=1;hachureGap=4;jiggle=2;curveFitting=1;fontFamily=Times New Roman;fontSize=23;fillColor=#d5e8d4;strokeColor=#82b366;" parent="1" vertex="1">
          <mxGeometry x="-280" y="410" width="130" height="65" as="geometry" />
        </mxCell>
        <mxCell id="1rFECFDxZxibHeM7rXUO-29" value="" style="edgeStyle=orthogonalEdgeStyle;rounded=0;sketch=1;hachureGap=4;jiggle=2;curveFitting=1;orthogonalLoop=1;jettySize=auto;html=1;fontFamily=Times New Roman;fontSize=23;" parent="1" source="1rFECFDxZxibHeM7rXUO-27" target="1rFECFDxZxibHeM7rXUO-28" edge="1">
          <mxGeometry relative="1" as="geometry" />
        </mxCell>
        <mxCell id="1rFECFDxZxibHeM7rXUO-27" value="_do_attach" style="rounded=1;whiteSpace=wrap;html=1;sketch=1;hachureGap=4;jiggle=2;curveFitting=1;fontFamily=Times New Roman;fontSize=23;fillColor=#f0a30a;fontColor=#000000;strokeColor=#BD7000;" parent="1" vertex="1">
          <mxGeometry x="100" y="580" width="120" height="60" as="geometry" />
        </mxCell>
        <mxCell id="1rFECFDxZxibHeM7rXUO-39" value="" style="edgeStyle=orthogonalEdgeStyle;rounded=0;sketch=1;hachureGap=4;jiggle=2;curveFitting=1;orthogonalLoop=1;jettySize=auto;html=1;fontFamily=Times New Roman;fontSize=23;" parent="1" source="1rFECFDxZxibHeM7rXUO-28" target="1rFECFDxZxibHeM7rXUO-38" edge="1">
          <mxGeometry relative="1" as="geometry" />
        </mxCell>
        <mxCell id="1rFECFDxZxibHeM7rXUO-28" value="get_volume_connector" style="whiteSpace=wrap;html=1;fontFamily=Times New Roman;rounded=1;sketch=1;hachureGap=4;jiggle=2;curveFitting=1;fontSize=23;fillColor=#f0a30a;fontColor=#000000;strokeColor=#BD7000;" parent="1" vertex="1">
          <mxGeometry x="262.5" y="580" width="211.5" height="60" as="geometry" />
        </mxCell>
        <mxCell id="1rFECFDxZxibHeM7rXUO-32" value="" style="html=1;verticalLabelPosition=bottom;align=center;labelBackgroundColor=default;verticalAlign=top;strokeWidth=2;strokeColor=#b85450;shadow=0;dashed=0;shape=mxgraph.ios7.icons.locked;sketch=1;hachureGap=4;jiggle=2;curveFitting=1;fontFamily=Times New Roman;fillColor=#f8cecc;fontSize=23;" parent="1" vertex="1">
          <mxGeometry x="140" y="430" width="24.75" height="30" as="geometry" />
        </mxCell>
        <mxCell id="1rFECFDxZxibHeM7rXUO-34" value="guard_connection" style="text;html=1;align=center;verticalAlign=middle;resizable=0;points=[];autosize=1;strokeColor=none;fillColor=none;fontFamily=Times New Roman;fontSize=23;labelBackgroundColor=default;" parent="1" vertex="1">
          <mxGeometry x="154.75" y="430" width="190" height="40" as="geometry" />
        </mxCell>
        <mxCell id="1rFECFDxZxibHeM7rXUO-35" value="synchronized(instance.uuid)" style="text;html=1;align=center;verticalAlign=middle;resizable=0;points=[];autosize=1;strokeColor=none;fillColor=none;fontFamily=Times New Roman;fontSize=23;" parent="1" vertex="1">
          <mxGeometry x="439" y="240" width="280" height="40" as="geometry" />
        </mxCell>
        <mxCell id="1rFECFDxZxibHeM7rXUO-41" value="" style="edgeStyle=orthogonalEdgeStyle;rounded=0;sketch=1;hachureGap=4;jiggle=2;curveFitting=1;orthogonalLoop=1;jettySize=auto;html=1;fontFamily=Times New Roman;fontSize=23;" parent="1" source="1rFECFDxZxibHeM7rXUO-38" target="1rFECFDxZxibHeM7rXUO-40" edge="1">
          <mxGeometry relative="1" as="geometry" />
        </mxCell>
        <mxCell id="1rFECFDxZxibHeM7rXUO-59" value="" style="edgeStyle=orthogonalEdgeStyle;rounded=0;sketch=1;hachureGap=4;jiggle=2;curveFitting=1;orthogonalLoop=1;jettySize=auto;html=1;fontFamily=Times New Roman;fontSize=23;" parent="1" source="1rFECFDxZxibHeM7rXUO-38" target="1rFECFDxZxibHeM7rXUO-42" edge="1">
          <mxGeometry relative="1" as="geometry">
            <Array as="points">
              <mxPoint x="579" y="670" />
              <mxPoint x="579" y="670" />
            </Array>
          </mxGeometry>
        </mxCell>
        <mxCell id="1rFECFDxZxibHeM7rXUO-38" value="attachment_id" style="rhombus;whiteSpace=wrap;html=1;fontFamily=Times New Roman;rounded=1;sketch=1;hachureGap=4;jiggle=2;curveFitting=1;fontSize=23;fillColor=#f0a30a;fontColor=#000000;strokeColor=#BD7000;" parent="1" vertex="1">
          <mxGeometry x="498.62" y="570" width="160.75" height="80" as="geometry" />
        </mxCell>
        <mxCell id="1rFECFDxZxibHeM7rXUO-40" value="_legacy_volume_attach" style="whiteSpace=wrap;html=1;fontFamily=Times New Roman;rounded=1;sketch=1;hachureGap=4;jiggle=2;curveFitting=1;fontSize=23;fillColor=#f0a30a;fontColor=#000000;strokeColor=#BD7000;" parent="1" vertex="1">
          <mxGeometry x="690" y="580" width="213.5" height="60" as="geometry" />
        </mxCell>
        <mxCell id="1rFECFDxZxibHeM7rXUO-42" value="_volume_attach" style="whiteSpace=wrap;html=1;fontFamily=Times New Roman;rounded=1;sketch=1;hachureGap=4;jiggle=2;curveFitting=1;fontSize=23;fillColor=#f0a30a;fontColor=#000000;strokeColor=#BD7000;" parent="1" vertex="1">
          <mxGeometry x="514.5" y="670" width="135.5" height="60" as="geometry" />
        </mxCell>
        <mxCell id="1rFECFDxZxibHeM7rXUO-47" value="" style="endArrow=classic;html=1;rounded=0;sketch=1;hachureGap=4;jiggle=2;curveFitting=1;fontFamily=Times New Roman;exitX=0.5;exitY=1;exitDx=0;exitDy=0;entryX=0;entryY=0.5;entryDx=0;entryDy=0;startArrow=classic;startFill=1;fontSize=23;fillColor=#d5e8d4;strokeColor=#82b366;" parent="1" source="1rFECFDxZxibHeM7rXUO-23" edge="1">
          <mxGeometry width="50" height="50" relative="1" as="geometry">
            <mxPoint x="-220" y="700" as="sourcePoint" />
            <mxPoint x="500" y="700" as="targetPoint" />
            <Array as="points">
              <mxPoint x="-220" y="700" />
            </Array>
          </mxGeometry>
        </mxCell>
        <mxCell id="1rFECFDxZxibHeM7rXUO-48" value="connection_info" style="edgeLabel;html=1;align=center;verticalAlign=middle;resizable=0;points=[];sketch=1;hachureGap=4;jiggle=2;curveFitting=1;fontFamily=Times New Roman;fontSize=23;labelBackgroundColor=default;fontColor=#990000;" parent="1rFECFDxZxibHeM7rXUO-47" vertex="1" connectable="0">
          <mxGeometry x="-0.3694" y="1" relative="1" as="geometry">
            <mxPoint x="368" y="1" as="offset" />
          </mxGeometry>
        </mxCell>
        <mxCell id="1rFECFDxZxibHeM7rXUO-65" value="" style="edgeStyle=orthogonalEdgeStyle;rounded=0;sketch=1;hachureGap=4;jiggle=2;curveFitting=1;orthogonalLoop=1;jettySize=auto;html=1;fontFamily=Times New Roman;fontSize=23;" parent="1" source="1rFECFDxZxibHeM7rXUO-50" target="1rFECFDxZxibHeM7rXUO-64" edge="1">
          <mxGeometry relative="1" as="geometry" />
        </mxCell>
        <mxCell id="1rFECFDxZxibHeM7rXUO-50" value="virt_driver.attach_volume" style="whiteSpace=wrap;html=1;fontFamily=Times New Roman;rounded=1;sketch=1;hachureGap=4;jiggle=2;curveFitting=1;fontSize=23;fillColor=#f8cecc;strokeColor=#b85450;" parent="1" vertex="1">
          <mxGeometry x="48.25" y="800" width="231.5" height="60" as="geometry" />
        </mxCell>
        <mxCell id="1rFECFDxZxibHeM7rXUO-53" value="" style="endArrow=classic;startArrow=classic;html=1;rounded=0;sketch=1;hachureGap=4;jiggle=2;curveFitting=1;fontFamily=Times New Roman;exitX=0.167;exitY=1.025;exitDx=0;exitDy=0;exitPerimeter=0;fontSize=23;entryX=0;entryY=0.5;entryDx=0;entryDy=0;fillColor=#d5e8d4;strokeColor=#82b366;" parent="1" source="1rFECFDxZxibHeM7rXUO-23" target="1rFECFDxZxibHeM7rXUO-50" edge="1">
          <mxGeometry width="50" height="50" relative="1" as="geometry">
            <mxPoint x="-300" y="800" as="sourcePoint" />
            <mxPoint x="-11.75" y="830.0000000000002" as="targetPoint" />
            <Array as="points">
              <mxPoint x="-260" y="830" />
              <mxPoint x="-140" y="830" />
            </Array>
          </mxGeometry>
        </mxCell>
        <mxCell id="1rFECFDxZxibHeM7rXUO-54" value="attachment_complete" style="edgeLabel;html=1;align=center;verticalAlign=middle;resizable=0;points=[];sketch=1;hachureGap=4;jiggle=2;curveFitting=1;fontFamily=Times New Roman;fontSize=23;labelBackgroundColor=default;fontColor=#990000;" parent="1rFECFDxZxibHeM7rXUO-53" vertex="1" connectable="0">
          <mxGeometry x="-0.0534" y="2" relative="1" as="geometry">
            <mxPoint x="108" y="41" as="offset" />
          </mxGeometry>
        </mxCell>
        <mxCell id="1rFECFDxZxibHeM7rXUO-58" value="block_device" style="rounded=1;whiteSpace=wrap;html=1;sketch=1;hachureGap=4;jiggle=2;curveFitting=1;fontFamily=Times New Roman;fontSize=23;fillColor=#ffe6cc;strokeColor=#d79b00;" parent="1" vertex="1">
          <mxGeometry x="-130" y="600" width="130" height="60" as="geometry" />
        </mxCell>
        <mxCell id="1rFECFDxZxibHeM7rXUO-75" value="" style="edgeStyle=orthogonalEdgeStyle;rounded=0;sketch=1;hachureGap=4;jiggle=2;curveFitting=1;orthogonalLoop=1;jettySize=auto;html=1;fontFamily=Times New Roman;fontSize=23;" parent="1" source="1rFECFDxZxibHeM7rXUO-64" target="1rFECFDxZxibHeM7rXUO-74" edge="1">
          <mxGeometry relative="1" as="geometry" />
        </mxCell>
        <mxCell id="1rFECFDxZxibHeM7rXUO-64" value="_connect_volume" style="whiteSpace=wrap;html=1;fontFamily=Times New Roman;rounded=1;sketch=1;hachureGap=4;jiggle=2;curveFitting=1;fontSize=23;fillColor=#f8cecc;strokeColor=#b85450;" parent="1" vertex="1">
          <mxGeometry x="324" y="800" width="160" height="60" as="geometry" />
        </mxCell>
        <mxCell id="1rFECFDxZxibHeM7rXUO-66" value="_attach_encryptor" style="whiteSpace=wrap;html=1;fontFamily=Times New Roman;rounded=1;sketch=1;hachureGap=4;jiggle=2;curveFitting=1;fontSize=23;fillColor=#f8cecc;strokeColor=#b85450;" parent="1" vertex="1">
          <mxGeometry x="308.75" y="910" width="202.5" height="60" as="geometry" />
        </mxCell>
        <mxCell id="1rFECFDxZxibHeM7rXUO-73" value="" style="endArrow=classic;html=1;rounded=0;sketch=1;hachureGap=4;jiggle=2;curveFitting=1;fontFamily=Times New Roman;exitX=0;exitY=1;exitDx=0;exitDy=0;fontSize=23;labelBackgroundColor=default;fillColor=#fa6800;strokeColor=#C73500;strokeWidth=3;" parent="1" source="1rFECFDxZxibHeM7rXUO-42" edge="1">
          <mxGeometry width="50" height="50" relative="1" as="geometry">
            <mxPoint x="420" y="800" as="sourcePoint" />
            <mxPoint x="270" y="790" as="targetPoint" />
          </mxGeometry>
        </mxCell>
        <mxCell id="1rFECFDxZxibHeM7rXUO-77" value="" style="edgeStyle=orthogonalEdgeStyle;rounded=0;sketch=1;hachureGap=4;jiggle=2;curveFitting=1;orthogonalLoop=1;jettySize=auto;html=1;fontFamily=Times New Roman;fontSize=23;" parent="1" source="1rFECFDxZxibHeM7rXUO-74" target="1rFECFDxZxibHeM7rXUO-76" edge="1">
          <mxGeometry relative="1" as="geometry" />
        </mxCell>
        <mxCell id="f42JxFTkJ6E-BkjvLiib-2" value="" style="edgeStyle=orthogonalEdgeStyle;rounded=0;sketch=1;hachureGap=4;jiggle=2;curveFitting=1;orthogonalLoop=1;jettySize=auto;html=1;fontFamily=Architects Daughter;fontSource=https%3A%2F%2Ffonts.googleapis.com%2Fcss%3Ffamily%3DArchitects%2BDaughter;fontSize=23;" edge="1" parent="1" source="1rFECFDxZxibHeM7rXUO-74" target="f42JxFTkJ6E-BkjvLiib-1">
          <mxGeometry relative="1" as="geometry" />
        </mxCell>
        <mxCell id="1rFECFDxZxibHeM7rXUO-74" value="guest.attach_device" style="whiteSpace=wrap;html=1;fontFamily=Times New Roman;rounded=1;sketch=1;hachureGap=4;jiggle=2;curveFitting=1;fontSize=23;fillColor=#f8cecc;strokeColor=#b85450;" parent="1" vertex="1">
          <mxGeometry x="550" y="800" width="185" height="60" as="geometry" />
        </mxCell>
        <mxCell id="1rFECFDxZxibHeM7rXUO-76" value="instance.save()" style="whiteSpace=wrap;html=1;fontFamily=Times New Roman;rounded=1;sketch=1;hachureGap=4;jiggle=2;curveFitting=1;fontSize=23;fillColor=#f8cecc;strokeColor=#b85450;" parent="1" vertex="1">
          <mxGeometry x="783.25" y="800" width="140" height="60" as="geometry" />
        </mxCell>
        <mxCell id="1rFECFDxZxibHeM7rXUO-81" value="" style="edgeStyle=orthogonalEdgeStyle;rounded=0;sketch=1;hachureGap=4;jiggle=2;curveFitting=1;orthogonalLoop=1;jettySize=auto;html=1;fontFamily=Times New Roman;fontSize=23;" parent="1" source="1rFECFDxZxibHeM7rXUO-79" target="1rFECFDxZxibHeM7rXUO-66" edge="1">
          <mxGeometry relative="1" as="geometry" />
        </mxCell>
        <mxCell id="1rFECFDxZxibHeM7rXUO-79" value="vol_driver.connect_volume" style="rounded=1;whiteSpace=wrap;html=1;sketch=1;hachureGap=4;jiggle=2;curveFitting=1;fontFamily=Times New Roman;fontSize=23;fillColor=#f8cecc;strokeColor=#b85450;" parent="1" vertex="1">
          <mxGeometry x="45.25" y="910" width="237.5" height="60" as="geometry" />
        </mxCell>
        <mxCell id="1rFECFDxZxibHeM7rXUO-80" value="" style="endArrow=classic;html=1;rounded=0;sketch=1;hachureGap=4;jiggle=2;curveFitting=1;fontFamily=Times New Roman;fontSize=23;" parent="1" edge="1">
          <mxGeometry width="50" height="50" relative="1" as="geometry">
            <mxPoint x="366.5" y="860" as="sourcePoint" />
            <mxPoint x="190" y="910" as="targetPoint" />
          </mxGeometry>
        </mxCell>
        <mxCell id="1rFECFDxZxibHeM7rXUO-86" value="libvirt" style="rounded=1;whiteSpace=wrap;html=1;sketch=1;hachureGap=4;jiggle=2;curveFitting=1;fontFamily=Times New Roman;fontSize=23;fillColor=#f8cecc;strokeColor=#b85450;" parent="1" vertex="1">
          <mxGeometry x="-130" y="850" width="130" height="60" as="geometry" />
        </mxCell>
        <mxCell id="f42JxFTkJ6E-BkjvLiib-1" value="attachDeviceFlags" style="whiteSpace=wrap;html=1;fontSize=23;fontFamily=Times New Roman;fillColor=#f8cecc;strokeColor=#b85450;rounded=1;sketch=1;hachureGap=4;jiggle=2;curveFitting=1;" vertex="1" parent="1">
          <mxGeometry x="555.56" y="910" width="173.87" height="60" as="geometry" />
        </mxCell>
      </root>
    </mxGraphModel>
  </diagram>
</mxfile>
